<mxfile host="app.diagrams.net" agent="Mozilla/5.0 (Windows NT 10.0; Win64; x64) AppleWebKit/537.36 (KHTML, like Gecko) Chrome/130.0.0.0 Whale/4.29.282.15 Safari/537.36" version="26.0.9">
  <diagram name="페이지-1" id="uDbAi64YpggpZshyLzYi">
    <mxGraphModel dx="1324" dy="790" grid="1" gridSize="10" guides="1" tooltips="1" connect="1" arrows="1" fold="1" page="1" pageScale="1" pageWidth="827" pageHeight="1169" math="0" shadow="0">
      <root>
        <mxCell id="0" />
        <mxCell id="1" parent="0" />
        <mxCell id="Q2zNazJmKgzokcgeoUmJ-25" value="System" style="swimlane;whiteSpace=wrap;html=1;startSize=39;fontSize=10;" parent="1" vertex="1">
          <mxGeometry x="40" y="40" width="624" height="522" as="geometry" />
        </mxCell>
        <mxCell id="Q2zNazJmKgzokcgeoUmJ-26" value="&lt;font color=&quot;#1a3300&quot; style=&quot;font-size: 10px;&quot;&gt;Controller&lt;/font&gt;" style="shape=umlLifeline;perimeter=lifelinePerimeter;whiteSpace=wrap;html=1;container=0;dropTarget=0;collapsible=0;recursiveResize=0;outlineConnect=0;portConstraint=eastwest;newEdgeStyle={&quot;curved&quot;:0,&quot;rounded&quot;:0};fillColor=#CCE5FF;strokeColor=#001933;fontSize=10;" parent="Q2zNazJmKgzokcgeoUmJ-25" vertex="1">
          <mxGeometry x="70" y="80" width="80" height="448" as="geometry" />
        </mxCell>
        <mxCell id="Q2zNazJmKgzokcgeoUmJ-27" value="" style="html=1;points=[[0,0,0,0,5],[0,1,0,0,-5],[1,0,0,0,5],[1,1,0,0,-5]];perimeter=orthogonalPerimeter;outlineConnect=0;targetShapes=umlLifeline;portConstraint=eastwest;newEdgeStyle={&quot;curved&quot;:0,&quot;rounded&quot;:0};fillColor=#CCE5FF;strokeColor=#003366;fontSize=10;" parent="Q2zNazJmKgzokcgeoUmJ-26" vertex="1">
          <mxGeometry x="30" y="220" width="20" height="20" as="geometry" />
        </mxCell>
        <mxCell id="Q2zNazJmKgzokcgeoUmJ-28" value="&lt;font color=&quot;#1a3300&quot; style=&quot;font-size: 10px;&quot;&gt;MPU&lt;/font&gt;" style="shape=umlLifeline;perimeter=lifelinePerimeter;whiteSpace=wrap;html=1;container=0;dropTarget=0;collapsible=0;recursiveResize=0;outlineConnect=0;portConstraint=eastwest;newEdgeStyle={&quot;curved&quot;:0,&quot;rounded&quot;:0};fillColor=#CCE5FF;strokeColor=#001933;fontSize=10;" parent="Q2zNazJmKgzokcgeoUmJ-25" vertex="1">
          <mxGeometry x="190" y="80" width="80" height="448" as="geometry" />
        </mxCell>
        <mxCell id="Q2zNazJmKgzokcgeoUmJ-29" value="" style="html=1;points=[[0,0,0,0,5],[0,1,0,0,-5],[1,0,0,0,5],[1,1,0,0,-5]];perimeter=orthogonalPerimeter;outlineConnect=0;targetShapes=umlLifeline;portConstraint=eastwest;newEdgeStyle={&quot;curved&quot;:0,&quot;rounded&quot;:0};fillColor=#CCE5FF;strokeColor=#003366;fontSize=10;" parent="Q2zNazJmKgzokcgeoUmJ-28" vertex="1">
          <mxGeometry x="30" y="60" width="20" height="360" as="geometry" />
        </mxCell>
        <mxCell id="Q2zNazJmKgzokcgeoUmJ-34" value="&lt;font color=&quot;#1a3300&quot;&gt;Sensor&lt;/font&gt;" style="shape=umlLifeline;perimeter=lifelinePerimeter;whiteSpace=wrap;html=1;container=0;dropTarget=0;collapsible=0;recursiveResize=0;outlineConnect=0;portConstraint=eastwest;newEdgeStyle={&quot;curved&quot;:0,&quot;rounded&quot;:0};fillColor=#CCE5FF;strokeColor=#001933;fontSize=10;" parent="Q2zNazJmKgzokcgeoUmJ-25" vertex="1">
          <mxGeometry x="310" y="80" width="80" height="448" as="geometry" />
        </mxCell>
        <mxCell id="Q2zNazJmKgzokcgeoUmJ-35" value="" style="html=1;points=[[0,0,0,0,5],[0,1,0,0,-5],[1,0,0,0,5],[1,1,0,0,-5]];perimeter=orthogonalPerimeter;outlineConnect=0;targetShapes=umlLifeline;portConstraint=eastwest;newEdgeStyle={&quot;curved&quot;:0,&quot;rounded&quot;:0};fillColor=#CCE5FF;strokeColor=#003366;fontSize=10;" parent="Q2zNazJmKgzokcgeoUmJ-34" vertex="1">
          <mxGeometry x="30" y="60" width="20" height="360" as="geometry" />
        </mxCell>
        <mxCell id="Q2zNazJmKgzokcgeoUmJ-36" value="" style="endArrow=classic;html=1;rounded=0;fontSize=10;" parent="Q2zNazJmKgzokcgeoUmJ-25" edge="1">
          <mxGeometry width="50" height="50" relative="1" as="geometry">
            <mxPoint x="20" y="300" as="sourcePoint" />
            <mxPoint x="99.99999999999989" y="300" as="targetPoint" />
            <Array as="points">
              <mxPoint x="20" y="300" />
            </Array>
          </mxGeometry>
        </mxCell>
        <mxCell id="Q2zNazJmKgzokcgeoUmJ-37" value="Input" style="edgeLabel;html=1;align=center;verticalAlign=middle;resizable=0;points=[];fontSize=10;" parent="Q2zNazJmKgzokcgeoUmJ-36" connectable="0" vertex="1">
          <mxGeometry x="0.5485" y="2" relative="1" as="geometry">
            <mxPoint x="-31" y="2" as="offset" />
          </mxGeometry>
        </mxCell>
        <mxCell id="Q2zNazJmKgzokcgeoUmJ-38" value="" style="endArrow=classic;html=1;rounded=0;exitX=0.96;exitY=0.075;exitDx=0;exitDy=0;exitPerimeter=0;fontSize=10;" parent="Q2zNazJmKgzokcgeoUmJ-25" edge="1">
          <mxGeometry width="50" height="50" relative="1" as="geometry">
            <mxPoint x="120" y="320" as="sourcePoint" />
            <mxPoint x="220" y="320" as="targetPoint" />
          </mxGeometry>
        </mxCell>
        <mxCell id="Q2zNazJmKgzokcgeoUmJ-39" value="Ideal Pose" style="edgeLabel;html=1;align=center;verticalAlign=middle;resizable=0;points=[];fontSize=10;" parent="Q2zNazJmKgzokcgeoUmJ-38" connectable="0" vertex="1">
          <mxGeometry x="0.0298" relative="1" as="geometry">
            <mxPoint x="-2" y="-10" as="offset" />
          </mxGeometry>
        </mxCell>
        <mxCell id="Q2zNazJmKgzokcgeoUmJ-48" value="&lt;font color=&quot;#1a3300&quot; style=&quot;font-size: 10px;&quot;&gt;Motor&lt;/font&gt;" style="shape=umlLifeline;perimeter=lifelinePerimeter;whiteSpace=wrap;html=1;container=0;dropTarget=0;collapsible=0;recursiveResize=0;outlineConnect=0;portConstraint=eastwest;newEdgeStyle={&quot;curved&quot;:0,&quot;rounded&quot;:0};fillColor=#CCE5FF;strokeColor=#001933;fontSize=10;" parent="Q2zNazJmKgzokcgeoUmJ-25" vertex="1">
          <mxGeometry x="430" y="80" width="80" height="448" as="geometry" />
        </mxCell>
        <mxCell id="Q2zNazJmKgzokcgeoUmJ-49" value="" style="html=1;points=[[0,0,0,0,5],[0,1,0,0,-5],[1,0,0,0,5],[1,1,0,0,-5]];perimeter=orthogonalPerimeter;outlineConnect=0;targetShapes=umlLifeline;portConstraint=eastwest;newEdgeStyle={&quot;curved&quot;:0,&quot;rounded&quot;:0};fillColor=#CCE5FF;strokeColor=#003366;fontSize=10;" parent="Q2zNazJmKgzokcgeoUmJ-48" vertex="1">
          <mxGeometry x="30" y="60" width="20" height="360" as="geometry" />
        </mxCell>
        <mxCell id="Q2zNazJmKgzokcgeoUmJ-66" value="Raw Data" style="html=1;verticalAlign=bottom;endArrow=open;endSize=8;curved=0;rounded=0;labelBackgroundColor=none;fontSize=10;" parent="Q2zNazJmKgzokcgeoUmJ-25" edge="1">
          <mxGeometry relative="1" as="geometry">
            <mxPoint x="340" y="180" as="sourcePoint" />
            <mxPoint x="240" y="180" as="targetPoint" />
            <mxPoint as="offset" />
          </mxGeometry>
        </mxCell>
        <mxCell id="Q2zNazJmKgzokcgeoUmJ-67" value="" style="html=1;align=left;spacingLeft=2;endArrow=block;rounded=0;edgeStyle=orthogonalEdgeStyle;curved=0;rounded=0;strokeColor=#000000;fillColor=#dae8fc;fontSize=10;" parent="Q2zNazJmKgzokcgeoUmJ-25" edge="1">
          <mxGeometry relative="1" as="geometry">
            <mxPoint x="240" y="200" as="sourcePoint" />
            <Array as="points">
              <mxPoint x="280" y="200" />
              <mxPoint x="280" y="220" />
            </Array>
            <mxPoint x="240" y="220" as="targetPoint" />
          </mxGeometry>
        </mxCell>
        <mxCell id="Q2zNazJmKgzokcgeoUmJ-68" value="Compute" style="edgeLabel;html=1;align=center;verticalAlign=middle;resizable=0;points=[];fontSize=10;" parent="Q2zNazJmKgzokcgeoUmJ-67" connectable="0" vertex="1">
          <mxGeometry x="-0.4867" relative="1" as="geometry">
            <mxPoint x="14" y="10" as="offset" />
          </mxGeometry>
        </mxCell>
        <mxCell id="Q2zNazJmKgzokcgeoUmJ-71" value="" style="endArrow=classic;html=1;rounded=0;fontSize=10;" parent="Q2zNazJmKgzokcgeoUmJ-25" edge="1">
          <mxGeometry width="50" height="50" relative="1" as="geometry">
            <mxPoint x="240" y="240" as="sourcePoint" />
            <mxPoint x="460" y="240" as="targetPoint" />
            <Array as="points" />
          </mxGeometry>
        </mxCell>
        <mxCell id="Q2zNazJmKgzokcgeoUmJ-72" value="Pose Control" style="edgeLabel;html=1;align=center;verticalAlign=middle;resizable=0;points=[];fontSize=10;" parent="Q2zNazJmKgzokcgeoUmJ-71" connectable="0" vertex="1">
          <mxGeometry x="0.389" y="-1" relative="1" as="geometry">
            <mxPoint x="13" y="-11" as="offset" />
          </mxGeometry>
        </mxCell>
        <mxCell id="Q2zNazJmKgzokcgeoUmJ-75" value="" style="html=1;align=left;spacingLeft=2;endArrow=block;rounded=0;edgeStyle=orthogonalEdgeStyle;curved=0;rounded=0;strokeColor=#000000;fillColor=#dae8fc;fontSize=10;" parent="Q2zNazJmKgzokcgeoUmJ-25" edge="1">
          <mxGeometry relative="1" as="geometry">
            <mxPoint x="240" y="361.83" as="sourcePoint" />
            <Array as="points">
              <mxPoint x="280" y="361.83" />
              <mxPoint x="280" y="381.83" />
            </Array>
            <mxPoint x="240" y="381.83" as="targetPoint" />
          </mxGeometry>
        </mxCell>
        <mxCell id="Q2zNazJmKgzokcgeoUmJ-76" value="Compute" style="edgeLabel;html=1;align=center;verticalAlign=middle;resizable=0;points=[];fontSize=10;" parent="Q2zNazJmKgzokcgeoUmJ-75" connectable="0" vertex="1">
          <mxGeometry x="-0.4867" relative="1" as="geometry">
            <mxPoint x="14" y="10" as="offset" />
          </mxGeometry>
        </mxCell>
        <mxCell id="Q2zNazJmKgzokcgeoUmJ-77" value="" style="endArrow=classic;html=1;rounded=0;fontSize=10;" parent="Q2zNazJmKgzokcgeoUmJ-25" edge="1">
          <mxGeometry width="50" height="50" relative="1" as="geometry">
            <mxPoint x="240" y="399.99999999999994" as="sourcePoint" />
            <mxPoint x="460" y="399.99999999999994" as="targetPoint" />
            <Array as="points" />
          </mxGeometry>
        </mxCell>
        <mxCell id="Q2zNazJmKgzokcgeoUmJ-78" value="Pose Control" style="edgeLabel;html=1;align=center;verticalAlign=middle;resizable=0;points=[];fontSize=10;" parent="Q2zNazJmKgzokcgeoUmJ-77" connectable="0" vertex="1">
          <mxGeometry x="0.389" y="-1" relative="1" as="geometry">
            <mxPoint x="13" y="-11" as="offset" />
          </mxGeometry>
        </mxCell>
        <mxCell id="Q2zNazJmKgzokcgeoUmJ-79" value="Raw Data" style="html=1;verticalAlign=bottom;endArrow=open;endSize=8;curved=0;rounded=0;labelBackgroundColor=none;fontSize=10;" parent="Q2zNazJmKgzokcgeoUmJ-25" edge="1">
          <mxGeometry relative="1" as="geometry">
            <mxPoint x="340" y="340.65999999999997" as="sourcePoint" />
            <mxPoint x="240" y="340.65999999999997" as="targetPoint" />
            <mxPoint as="offset" />
          </mxGeometry>
        </mxCell>
        <mxCell id="Q2zNazJmKgzokcgeoUmJ-54" value="&lt;font style=&quot;font-size: 10px;&quot;&gt;loop&lt;/font&gt;" style="shape=umlFrame;whiteSpace=wrap;html=1;pointerEvents=0;width=40;height=20;" parent="Q2zNazJmKgzokcgeoUmJ-25" vertex="1">
          <mxGeometry x="200" y="140" width="310" height="120" as="geometry" />
        </mxCell>
      </root>
    </mxGraphModel>
  </diagram>
</mxfile>
